<svg xmlns="http://www.w3.org/2000/svg" xmlns:xlink="http://www.w3.org/1999/xlink" version="1.1" width="256" height="256" viewBox="0 0 256 256" xml:space="preserve">

<defs>
</defs>
<g style="stroke: none; stroke-width: 0; stroke-dasharray: none; stroke-linecap: butt; stroke-linejoin: miter; stroke-miterlimit: 10; fill: none; fill-rule: nonzero; opacity: 1;" transform="translate(1.4065934065934016 1.4065934065934016) scale(2.81 2.81)" >
	<path d="M 87.364 62.295 h -1.948 v -2 h 1.948 c 0.351 0 0.636 -0.285 0.636 -0.636 V 49.441 c 0 -0.155 -0.058 -0.307 -0.161 -0.424 L 77.65 37.558 c -0.121 -0.136 -0.294 -0.214 -0.476 -0.214 h -9.356 v 22.951 h 8.401 v 2 H 65.818 V 35.344 h 11.356 c 0.752 0 1.47 0.322 1.97 0.885 L 89.334 47.69 C 89.764 48.175 90 48.797 90 49.441 v 10.218 C 90 61.112 88.817 62.295 87.364 62.295 z" style="stroke: none; stroke-width: 1; stroke-dasharray: none; stroke-linecap: butt; stroke-linejoin: miter; stroke-miterlimit: 10; fill: rgb(0,0,0); fill-rule: nonzero; opacity: 1;" transform=" matrix(1 0 0 1 0 0) " stroke-linecap="round" />
	<path d="M 67.818 62.295 H 47.291 v -2 h 18.527 V 28.877 c 0 -1.95 -1.202 -3.537 -2.681 -3.537 H 31.866 c -1.479 0 -2.681 1.587 -2.681 3.537 v 30.23 c 0 0.7 0.408 1.188 0.774 1.188 h 8.143 v 2 h -8.143 c -1.53 0 -2.774 -1.43 -2.774 -3.188 v -30.23 c 0 -3.053 2.1 -5.537 4.681 -5.537 h 31.272 c 2.581 0 4.681 2.484 4.681 5.537 V 62.295 z" style="stroke: none; stroke-width: 1; stroke-dasharray: none; stroke-linecap: butt; stroke-linejoin: miter; stroke-miterlimit: 10; fill: rgb(0,0,0); fill-rule: nonzero; opacity: 1;" transform=" matrix(1 0 0 1 0 0) " stroke-linecap="round" />
	<path d="M 80.817 66.66 c -3.087 0 -5.598 -2.511 -5.598 -5.598 s 2.511 -5.599 5.598 -5.599 s 5.599 2.512 5.599 5.599 S 83.904 66.66 80.817 66.66 z M 80.817 57.464 c -1.983 0 -3.598 1.614 -3.598 3.599 c 0 1.983 1.614 3.598 3.598 3.598 c 1.984 0 3.599 -1.614 3.599 -3.598 C 84.416 59.078 82.802 57.464 80.817 57.464 z" style="stroke: none; stroke-width: 1; stroke-dasharray: none; stroke-linecap: butt; stroke-linejoin: miter; stroke-miterlimit: 10; fill: rgb(0,0,0); fill-rule: nonzero; opacity: 1;" transform=" matrix(1 0 0 1 0 0) " stroke-linecap="round" />
	<path d="M 42.693 66.66 c -3.087 0 -5.598 -2.511 -5.598 -5.598 s 2.511 -5.599 5.598 -5.599 s 5.598 2.512 5.598 5.599 S 45.78 66.66 42.693 66.66 z M 42.693 57.464 c -1.984 0 -3.598 1.614 -3.598 3.599 c 0 1.983 1.614 3.598 3.598 3.598 s 3.598 -1.614 3.598 -3.598 C 46.291 59.078 44.677 57.464 42.693 57.464 z" style="stroke: none; stroke-width: 1; stroke-dasharray: none; stroke-linecap: butt; stroke-linejoin: miter; stroke-miterlimit: 10; fill: rgb(0,0,0); fill-rule: nonzero; opacity: 1;" transform=" matrix(1 0 0 1 0 0) " stroke-linecap="round" />
	<path d="M 89 49.819 H 74.619 c -1.358 0 -2.463 -1.104 -2.463 -2.462 v -5.44 c 0 -1.358 1.104 -2.463 2.463 -2.463 h 6.944 v 2 h -6.944 c -0.255 0 -0.463 0.208 -0.463 0.463 v 5.44 c 0 0.255 0.208 0.462 0.463 0.462 H 89 V 49.819 z" style="stroke: none; stroke-width: 1; stroke-dasharray: none; stroke-linecap: butt; stroke-linejoin: miter; stroke-miterlimit: 10; fill: rgb(0,0,0); fill-rule: nonzero; opacity: 1;" transform=" matrix(1 0 0 1 0 0) " stroke-linecap="round" />
	<path d="M 21.207 52.942 H 8.615 c -0.552 0 -1 -0.447 -1 -1 s 0.448 -1 1 -1 h 12.592 c 0.552 0 1 0.447 1 1 S 21.759 52.942 21.207 52.942 z" style="stroke: none; stroke-width: 1; stroke-dasharray: none; stroke-linecap: butt; stroke-linejoin: miter; stroke-miterlimit: 10; fill: rgb(0,0,0); fill-rule: nonzero; opacity: 1;" transform=" matrix(1 0 0 1 0 0) " stroke-linecap="round" />
	<path d="M 21.207 46.031 H 4.617 c -0.552 0 -1 -0.448 -1 -1 s 0.448 -1 1 -1 h 16.59 c 0.552 0 1 0.448 1 1 S 21.759 46.031 21.207 46.031 z" style="stroke: none; stroke-width: 1; stroke-dasharray: none; stroke-linecap: butt; stroke-linejoin: miter; stroke-miterlimit: 10; fill: rgb(0,0,0); fill-rule: nonzero; opacity: 1;" transform=" matrix(1 0 0 1 0 0) " stroke-linecap="round" />
	<path d="M 21.207 39.121 H 1 c -0.552 0 -1 -0.448 -1 -1 s 0.448 -1 1 -1 h 20.207 c 0.552 0 1 0.448 1 1 S 21.759 39.121 21.207 39.121 z" style="stroke: none; stroke-width: 1; stroke-dasharray: none; stroke-linecap: butt; stroke-linejoin: miter; stroke-miterlimit: 10; fill: rgb(0,0,0); fill-rule: nonzero; opacity: 1;" transform=" matrix(1 0 0 1 0 0) " stroke-linecap="round" />
	<path d="M 47.502 51.655 c -5.695 0 -10.328 -4.633 -10.328 -10.328 S 41.807 31 47.502 31 c 5.694 0 10.327 4.633 10.327 10.328 S 53.196 51.655 47.502 51.655 z M 47.502 33 c -4.592 0 -8.328 3.736 -8.328 8.328 s 3.736 8.328 8.328 8.328 c 4.592 0 8.327 -3.736 8.327 -8.328 S 52.094 33 47.502 33 z" style="stroke: none; stroke-width: 1; stroke-dasharray: none; stroke-linecap: butt; stroke-linejoin: miter; stroke-miterlimit: 10; fill: rgb(0,0,0); fill-rule: nonzero; opacity: 1;" transform=" matrix(1 0 0 1 0 0) " stroke-linecap="round" />
	<path d="M 46.299 45.637 c -0.272 0 -0.533 -0.111 -0.722 -0.308 l -2.728 -2.845 c -0.382 -0.398 -0.369 -1.031 0.03 -1.414 c 0.398 -0.383 1.031 -0.37 1.414 0.03 l 1.96 2.045 l 4.417 -5.208 c 0.357 -0.42 0.988 -0.473 1.409 -0.116 c 0.422 0.357 0.474 0.988 0.116 1.41 l -5.134 6.053 c -0.184 0.216 -0.449 0.344 -0.732 0.353 C 46.319 45.637 46.309 45.637 46.299 45.637 z" style="stroke: none; stroke-width: 1; stroke-dasharray: none; stroke-linecap: butt; stroke-linejoin: miter; stroke-miterlimit: 10; fill: rgb(0,0,0); fill-rule: nonzero; opacity: 1;" transform=" matrix(1 0 0 1 0 0) " stroke-linecap="round" />
</g>
</svg>