<?xml version="1.0" standalone="no"?>
<!DOCTYPE svg PUBLIC "-//W3C//DTD SVG 20010904//EN"
 "http://www.w3.org/TR/2001/REC-SVG-20010904/DTD/svg10.dtd">
<svg version="1.0" xmlns="http://www.w3.org/2000/svg"
 viewBox="0 0 2600.000000 2600.000000"
 preserveAspectRatio="xMidYMid meet">
<metadata>
Created by potrace 1.15, written by Peter Selinger 2001-2017
</metadata>
<g transform="translate(0.000000,2600.000000) scale(0.100000,-0.100000)"
fill="#000000" stroke="none">
<path d="M9010 22196 c-237 -43 -432 -125 -613 -258 -88 -66 -291 -267 -414
-413 -153 -180 -311 -446 -412 -693 -384 -939 -353 -2130 94 -3547 266 -842
694 -1880 1077 -2611 l84 -162 -38 -77 c-152 -302 -297 -869 -368 -1443 -11
-89 -33 -233 -49 -320 -17 -86 -35 -197 -41 -247 -38 -311 -121 -683 -220
-990 -72 -222 -132 -320 -281 -460 -208 -197 -292 -282 -403 -406 -583 -652
-986 -1501 -1125 -2370 -73 -453 -73 -945 0 -1374 61 -364 168 -724 319 -1080
105 -247 321 -644 458 -840 625 -897 1531 -1521 2607 -1795 1137 -290 2360
-147 3378 397 l119 63 131 -69 c1441 -759 3208 -713 4602 120 660 395 1191
936 1570 1600 322 565 522 1152 606 1772 27 201 36 596 19 818 -85 1126 -597
2223 -1402 3006 -125 120 -238 249 -294 332 -52 76 -146 277 -189 401 -66 191
-141 531 -185 842 -10 73 -23 151 -29 174 -6 22 -24 171 -41 330 -65 610 -140
1011 -264 1412 l-35 113 137 272 c554 1099 1046 2426 1231 3317 216 1042 179
1918 -110 2661 -92 237 -218 464 -368 664 -99 132 -423 456 -519 519 -166 109
-361 187 -554 223 -136 25 -386 22 -543 -6 -245 -44 -512 -153 -729 -299 -217
-145 -640 -519 -901 -798 -1077 -1144 -1732 -2504 -1891 -3919 -9 -82 -18
-156 -20 -163 -3 -10 -35 -11 -151 -7 -82 4 -154 8 -160 11 -8 2 -13 21 -13
46 0 59 -35 358 -60 513 -55 336 -134 654 -245 990 -396 1199 -1175 2335
-2190 3195 -316 267 -513 387 -790 479 -200 67 -293 82 -515 86 -135 3 -218 0
-270 -9z m375 -1131 c75 -19 213 -85 279 -132 95 -68 350 -288 480 -413 527
-510 971 -1119 1292 -1775 244 -500 396 -977 473 -1481 48 -315 62 -546 70
-1119 l6 -490 35 3 c19 2 187 21 374 42 732 85 933 79 1763 -51 178 -28 327
-48 331 -45 3 4 9 196 13 429 14 715 42 1025 134 1438 93 414 232 800 441
1219 253 508 560 955 959 1400 134 149 419 429 529 520 43 36 113 94 155 129
185 156 343 226 511 225 85 0 100 -3 147 -28 33 -18 66 -48 92 -84 23 -30 59
-68 80 -84 45 -33 131 -135 191 -228 101 -157 198 -411 244 -641 144 -712 40
-1562 -319 -2619 -326 -957 -698 -1804 -1154 -2623 -66 -120 -121 -220 -121
-222 0 -2 38 -63 86 -135 94 -144 122 -213 183 -433 92 -338 134 -581 191
-1119 16 -158 37 -322 45 -365 9 -43 24 -139 35 -213 22 -160 85 -473 136
-672 117 -465 296 -852 527 -1135 36 -44 72 -94 79 -111 7 -16 69 -81 138
-144 69 -63 164 -156 213 -207 56 -60 91 -90 100 -85 6 4 75 61 152 127 l140
119 -142 -139 -143 -138 71 -85 c81 -99 232 -322 314 -464 258 -451 416 -934
465 -1415 13 -133 13 -459 0 -592 -46 -453 -166 -852 -389 -1284 -112 -217
-198 -357 -321 -520 -475 -630 -1186 -1077 -1985 -1250 -698 -151 -1446 -93
-2090 162 -276 109 -505 235 -815 449 -102 70 -189 127 -195 127 -5 0 -107
-65 -225 -145 -118 -80 -264 -174 -325 -209 -908 -521 -2044 -612 -3039 -242
-161 60 -473 213 -616 303 -447 282 -817 654 -1064 1070 -538 905 -675 1803
-415 2722 132 469 407 989 703 1333 88 102 201 220 291 304 164 152 200 188
273 271 92 105 211 282 279 416 105 204 237 642 334 1109 47 229 43 207 64
385 9 74 29 203 45 285 16 83 36 211 45 285 43 378 134 800 219 1025 41 106
141 290 265 488 l112 178 -120 212 c-279 497 -454 847 -678 1357 -231 525
-489 1221 -633 1699 -339 1133 -353 2100 -40 2746 72 148 142 248 249 357 53
54 117 119 142 146 30 33 58 53 85 60 59 15 182 14 249 -3z"/>
<path d="M9355 19950 c-278 -38 -501 -256 -614 -600 -172 -521 -92 -1271 226
-2120 89 -239 164 -411 308 -710 68 -140 146 -309 175 -375 119 -272 303 -616
457 -849 92 -140 290 -406 303 -406 4 0 36 25 71 57 156 139 379 295 554 388
50 27 91 49 93 51 17 11 74 458 94 729 16 221 16 850 0 1080 -39 551 -117
1025 -227 1375 -13 41 -35 117 -50 169 -34 123 -78 233 -116 289 -16 24 -47
79 -69 121 -126 252 -333 469 -613 644 -196 123 -415 181 -592 157z"/>
<path d="M16830 19949 c-36 -4 -103 -20 -150 -35 -333 -103 -718 -440 -871
-761 -18 -37 -47 -89 -64 -115 -42 -60 -88 -170 -121 -289 -14 -52 -36 -128
-49 -169 -105 -333 -177 -744 -222 -1280 -24 -287 -24 -1014 0 -1286 20 -223
42 -403 65 -528 l17 -90 102 -57 c209 -116 418 -263 556 -389 38 -35 72 -59
76 -54 39 43 218 289 296 407 159 243 343 588 470 882 26 61 92 200 145 310
297 607 484 1138 575 1630 76 411 77 811 5 1110 -118 487 -443 767 -830 714z"/>
<path d="M10489 11058 c-343 -31 -662 -287 -777 -623 -42 -124 -55 -219 -49
-365 6 -160 33 -266 102 -399 145 -280 407 -463 718 -503 369 -46 753 166 921
510 188 383 119 819 -178 1117 -194 195 -457 289 -737 263z"/>
<path d="M15694 11059 c-349 -31 -663 -284 -780 -626 -45 -133 -58 -223 -51
-368 14 -274 122 -500 329 -680 221 -194 532 -268 816 -194 479 125 782 618
682 1107 -99 487 -515 804 -996 761z"/>
<path d="M12680 8034 c-260 -69 -405 -302 -322 -519 27 -71 99 -170 185 -252
77 -74 216 -176 294 -217 l32 -16 3 -528 3 -527 26 -55 c37 -80 72 -115 147
-152 57 -28 77 -33 137 -32 95 1 160 30 224 100 83 91 81 75 81 669 l0 522 28
12 c62 28 226 146 301 217 90 85 170 197 196 274 12 36 16 74 14 128 -17 351
-507 520 -812 280 l-37 -30 -34 30 c-107 94 -314 137 -466 96z"/>
</g>
</svg>
