<svg xmlns="http://www.w3.org/2000/svg" xmlns:xlink="http://www.w3.org/1999/xlink" xml:space="preserve" version="1.1" style="shape-rendering:geometricPrecision;text-rendering:geometricPrecision;image-rendering:optimizeQuality;" viewBox="0 0 333.33 416.66249999999997" x="0px" y="0px" fill-rule="evenodd" clip-rule="evenodd"><defs><style type="text/css">
   
    .fil0 {fill:black;fill-rule:nonzero}
   
  </style></defs><g><path class="fil0" d="M292.07 161.93c-24.06,-9.05 -56.71,-28.41 -73.21,-69.14 -16.5,40.72 -49.15,60.09 -73.21,69.14 24.06,9.04 56.71,28.41 73.21,69.14 16.5,-40.72 49.15,-60.1 73.21,-69.14zm-153.32 96.22c-13.39,-6.16 -28.98,-17.15 -38.71,-36.57 -9.73,19.42 -25.33,30.41 -38.71,36.57 13.39,6.16 28.98,17.15 38.71,36.57 9.73,-19.42 25.32,-30.41 38.71,-36.57zm-31.2 -61.96c9.19,47.95 55.62,54.04 58.32,54.35 3.52,0.34 6.44,3.09 6.86,6.74 0.48,4.2 -2.53,7.98 -6.73,8.46 -0.14,0.02 -48.94,5.04 -58.43,54.29 -0.55,3.02 -2.89,5.53 -6.09,6.15 -4.15,0.79 -8.15,-1.93 -8.94,-6.07 -9.19,-47.95 -55.62,-54.04 -58.32,-54.35 -3.52,-0.33 -6.44,-3.09 -6.86,-6.74 -0.48,-4.2 2.54,-7.99 6.73,-8.46 0.14,-0.02 48.94,-5.04 58.43,-54.29 0.55,-3.02 2.89,-5.54 6.09,-6.15 4.15,-0.79 8.15,1.93 8.94,6.07zm29.3 -110.13c-16.72,-7.13 -37.22,-20.73 -49.07,-46.32 -11.86,25.59 -32.35,39.19 -49.07,46.32 16.72,7.13 37.21,20.72 49.07,46.31 11.85,-25.59 32.35,-39.19 49.07,-46.31zm-41.57 -72.84c11.07,57.74 67.09,64.9 69.99,65.23 3.54,0.33 6.48,3.1 6.89,6.77 0.46,4.2 -2.56,7.97 -6.76,8.43 -0.17,0.02 -58.72,6.04 -70.1,65.17 -0.55,3.02 -2.89,5.54 -6.09,6.15 -4.15,0.79 -8.15,-1.93 -8.94,-6.07 -11.07,-57.74 -67.09,-64.89 -69.99,-65.23 -3.54,-0.33 -6.48,-3.1 -6.89,-6.78 -0.46,-4.19 2.56,-7.97 6.76,-8.43 0.17,-0.02 58.72,-6.04 70.1,-65.17 0.55,-3.02 2.89,-5.53 6.09,-6.15 4.15,-0.79 8.15,1.93 8.94,6.07zm131.09 51.04c15.32,79.95 93.13,89.65 96.7,90.05 3.52,0.33 6.45,3.09 6.87,6.74 0.48,4.2 -2.53,7.99 -6.73,8.46 -0.23,0.03 -81.13,8.35 -96.83,89.99 -0.54,3.02 -2.89,5.54 -6.08,6.15 -4.15,0.79 -8.15,-1.93 -8.94,-6.07 -15.32,-79.95 -93.13,-89.65 -96.7,-90.05 -3.52,-0.33 -6.45,-3.09 -6.87,-6.74 -0.48,-4.2 2.53,-7.98 6.73,-8.46 0.23,-0.02 81.13,-8.35 96.83,-89.99 0.55,-3.02 2.89,-5.54 6.08,-6.15 4.15,-0.79 8.15,1.93 8.94,6.07z"/></g></svg>