<svg id="Layer_1" data-name="Layer 1" xmlns="http://www.w3.org/2000/svg" viewBox="0 0 1965.26 350.32"><defs><style>.cls-1{fill:#282828;}</style></defs><path class="cls-1" d="M247.89,0V12.44l-109-7V350.05H109V5.41l-109,7V0Z"/><path class="cls-1" d="M585.61,12.43V350.05H555.73V170.23H366.88V350.05H337V0l29.89,12.41V152.49l-26.64,13.39H555.73V0Z"/><path class="cls-1" d="M743.87,152.56,717.3,165.88H859.77V170H743.93V331.28l-26.57,13.38h171.9v5.39H714V0H889.26V5.41H743.93V152.56Z"/><path class="cls-1" d="M1350.17,0v350h-30.4l2.92-321.57-12.47,24.36-.33-.07-43.72,86.47,44-86.4-44.76,87.83L1165.8,337.85,1018.4,41.74l-10.53-21V350.32H997.48V0h33.19L1177.94,295.9,1328.27,0Z"/><path class="cls-1" d="M1498.35,152.56l-26.57,13.32h142.47V170H1498.42V331.28l-26.57,13.38h171.9v5.39H1468.47V0h175.28V5.41H1498.42V152.56Z"/><path class="cls-1" d="M1965.26,350.06h-31.7L1893,229.68,1888,214h.13l-2-6-12.67-37.81,2.67,8.12-2.73-8.12-1.36-4.07H1783.3l-.13.37-1.24,3.7-1.62,4.94L1767.25,214h.06l-4.61,13.83-40.93,122.2H1712l60.36-179.82,1.23-3.7,49.37-147L1816.3.29,1852,12.44ZM1784.69,162.11h85.93L1827.67,34l-43,128.09Z"/></svg>