<?xml version="1.0" encoding="utf-8"?>
<!-- Generator: Adobe Illustrator 25.2.0, SVG Export Plug-In . SVG Version: 6.00 Build 0)  -->
<svg version="1.1" id="Layer_1" xmlns="http://www.w3.org/2000/svg" xmlns:xlink="http://www.w3.org/1999/xlink" x="0px" y="0px"
	 viewBox="0 0 256 256" style="enable-background:new 0 0 256 256;" xml:space="preserve">
<style type="text/css">
	.st0{fill:#FFFFFF;}
</style>
<g transform="translate(1.4065934065934016 1.4065934065934016) scale(2.81 2.81)">
	<path class="st0" d="M87.4,62.3h-1.9v-2h1.9c0.4,0,0.6-0.3,0.6-0.6V49.4c0-0.2-0.1-0.3-0.2-0.4L77.7,37.6c-0.1-0.1-0.3-0.2-0.5-0.2
		h-9.4v23h8.4v2H65.8v-27h11.4c0.8,0,1.5,0.3,2,0.9l10.2,11.5c0.4,0.5,0.7,1.1,0.7,1.8v10.2C90,61.1,88.8,62.3,87.4,62.3z"/>
	<path class="st0" d="M67.8,62.3H47.3v-2h18.5V28.9c0-2-1.2-3.5-2.7-3.5H31.9c-1.5,0-2.7,1.6-2.7,3.5v30.2c0,0.7,0.4,1.2,0.8,1.2
		h8.1v2H30c-1.5,0-2.8-1.4-2.8-3.2V28.9c0-3.1,2.1-5.5,4.7-5.5h31.3c2.6,0,4.7,2.5,4.7,5.5L67.8,62.3L67.8,62.3z"/>
	<path class="st0" d="M80.8,66.7c-3.1,0-5.6-2.5-5.6-5.6s2.5-5.6,5.6-5.6s5.6,2.5,5.6,5.6S83.9,66.7,80.8,66.7z M80.8,57.5
		c-2,0-3.6,1.6-3.6,3.6c0,2,1.6,3.6,3.6,3.6s3.6-1.6,3.6-3.6C84.4,59.1,82.8,57.5,80.8,57.5z"/>
	<path class="st0" d="M42.7,66.7c-3.1,0-5.6-2.5-5.6-5.6s2.5-5.6,5.6-5.6s5.6,2.5,5.6,5.6S45.8,66.7,42.7,66.7z M42.7,57.5
		c-2,0-3.6,1.6-3.6,3.6c0,2,1.6,3.6,3.6,3.6s3.6-1.6,3.6-3.6C46.3,59.1,44.7,57.5,42.7,57.5z"/>
	<path class="st0" d="M89,49.8H74.6c-1.4,0-2.5-1.1-2.5-2.5v-5.4c0-1.4,1.1-2.5,2.5-2.5h6.9v2h-6.9c-0.3,0-0.5,0.2-0.5,0.5v5.4
		c0,0.3,0.2,0.5,0.5,0.5H89V49.8z"/>
	<path class="st0" d="M21.2,52.9H8.6c-0.6,0-1-0.4-1-1s0.4-1,1-1h12.6c0.6,0,1,0.4,1,1S21.8,52.9,21.2,52.9z"/>
	<path class="st0" d="M21.2,46H4.6c-0.6,0-1-0.4-1-1s0.4-1,1-1h16.6c0.6,0,1,0.4,1,1S21.8,46,21.2,46z"/>
	<path class="st0" d="M21.2,39.1H1c-0.6,0-1-0.4-1-1s0.4-1,1-1h20.2c0.6,0,1,0.4,1,1S21.8,39.1,21.2,39.1z"/>
	<path class="st0" d="M47.5,51.7c-5.7,0-10.3-4.6-10.3-10.3S41.8,31,47.5,31c5.7,0,10.3,4.6,10.3,10.3S53.2,51.7,47.5,51.7z
		 M47.5,33c-4.6,0-8.3,3.7-8.3,8.3s3.7,8.3,8.3,8.3s8.3-3.7,8.3-8.3S52.1,33,47.5,33z"/>
	<path class="st0" d="M46.3,45.6c-0.3,0-0.5-0.1-0.7-0.3l-2.7-2.8c-0.4-0.4-0.4-1,0-1.4c0.4-0.4,1-0.4,1.4,0l2,2l4.4-5.2
		c0.4-0.4,1-0.5,1.4-0.1c0.4,0.4,0.5,1,0.1,1.4l-5.1,6.1C46.9,45.5,46.6,45.6,46.3,45.6C46.3,45.6,46.3,45.6,46.3,45.6z"/>
</g>
</svg>
