<?xml version="1.0" encoding="utf-8"?>
<!-- Generator: Adobe Illustrator 25.2.0, SVG Export Plug-In . SVG Version: 6.00 Build 0)  -->
<svg version="1.1" id="Layer_1" xmlns="http://www.w3.org/2000/svg" xmlns:xlink="http://www.w3.org/1999/xlink" x="0px" y="0px"
	 viewBox="0 0 2600 2600" style="enable-background:new 0 0 2600 2600;" xml:space="preserve">
<style type="text/css">
	.st0{fill:#FFFFFF;}
</style>
<g transform="translate(0.000000,2600.000000) scale(0.100000,-0.100000)">
	<path class="st0" d="M9010,22196c-237-43-432-125-613-258c-88-66-291-267-414-413c-153-180-311-446-412-693
		c-384-939-353-2130,94-3547c266-842,694-1880,1077-2611l84-162l-38-77c-152-302-297-869-368-1443c-11-89-33-233-49-320
		c-17-86-35-197-41-247c-38-311-121-683-220-990c-72-222-132-320-281-460c-208-197-292-282-403-406c-583-652-986-1501-1125-2370
		c-73-453-73-945,0-1374c61-364,168-724,319-1080c105-247,321-644,458-840c625-897,1531-1521,2607-1795c1137-290,2360-147,3378,397
		l119,63l131-69c1441-759,3208-713,4602,120c660,395,1191,936,1570,1600c322,565,522,1152,606,1772c27,201,36,596,19,818
		c-85,1126-597,2223-1402,3006c-125,120-238,249-294,332c-52,76-146,277-189,401c-66,191-141,531-185,842c-10,73-23,151-29,174
		c-6,22-24,171-41,330c-65,610-140,1011-264,1412l-35,113l137,272c554,1099,1046,2426,1231,3317c216,1042,179,1918-110,2661
		c-92,237-218,464-368,664c-99,132-423,456-519,519c-166,109-361,187-554,223c-136,25-386,22-543-6c-245-44-512-153-729-299
		c-217-145-640-519-901-798c-1077-1144-1732-2504-1891-3919c-9-82-18-156-20-163c-3-10-35-11-151-7c-82,4-154,8-160,11
		c-8,2-13,21-13,46c0,59-35,358-60,513c-55,336-134,654-245,990c-396,1199-1175,2335-2190,3195c-316,267-513,387-790,479
		c-200,67-293,82-515,86C9145,22208,9062,22205,9010,22196z M9385,21065c75-19,213-85,279-132c95-68,350-288,480-413
		c527-510,971-1119,1292-1775c244-500,396-977,473-1481c48-315,62-546,70-1119l6-490l35,3c19,2,187,21,374,42c732,85,933,79,1763-51
		c178-28,327-48,331-45c3,4,9,196,13,429c14,715,42,1025,134,1438c93,414,232,800,441,1219c253,508,560,955,959,1400
		c134,149,419,429,529,520c43,36,113,94,155,129c185,156,343,226,511,225c85,0,100-3,147-28c33-18,66-48,92-84c23-30,59-68,80-84
		c45-33,131-135,191-228c101-157,198-411,244-641c144-712,40-1562-319-2619c-326-957-698-1804-1154-2623c-66-120-121-220-121-222
		s38-63,86-135c94-144,122-213,183-433c92-338,134-581,191-1119c16-158,37-322,45-365c9-43,24-139,35-213c22-160,85-473,136-672
		c117-465,296-852,527-1135c36-44,72-94,79-111c7-16,69-81,138-144s164-156,213-207c56-60,91-90,100-85c6,4,75,61,152,127l140,119
		l-142-139l-143-138l71-85c81-99,232-322,314-464c258-451,416-934,465-1415c13-133,13-459,0-592c-46-453-166-852-389-1284
		c-112-217-198-357-321-520c-475-630-1186-1077-1985-1250c-698-151-1446-93-2090,162c-276,109-505,235-815,449
		c-102,70-189,127-195,127c-5,0-107-65-225-145s-264-174-325-209c-908-521-2044-612-3039-242c-161,60-473,213-616,303
		c-447,282-817,654-1064,1070c-538,905-675,1803-415,2722c132,469,407,989,703,1333c88,102,201,220,291,304c164,152,200,188,273,271
		c92,105,211,282,279,416c105,204,237,642,334,1109c47,229,43,207,64,385c9,74,29,203,45,285c16,83,36,211,45,285
		c43,378,134,800,219,1025c41,106,141,290,265,488l112,178l-120,212c-279,497-454,847-678,1357c-231,525-489,1221-633,1699
		c-339,1133-353,2100-40,2746c72,148,142,248,249,357c53,54,117,119,142,146c30,33,58,53,85,60C9195,21083,9318,21082,9385,21065z"
		/>
	<path class="st0" d="M9355,19950c-278-38-501-256-614-600c-172-521-92-1271,226-2120c89-239,164-411,308-710
		c68-140,146-309,175-375c119-272,303-616,457-849c92-140,290-406,303-406c4,0,36,25,71,57c156,139,379,295,554,388
		c50,27,91,49,93,51c17,11,74,458,94,729c16,221,16,850,0,1080c-39,551-117,1025-227,1375c-13,41-35,117-50,169
		c-34,123-78,233-116,289c-16,24-47,79-69,121c-126,252-333,469-613,644C9751,19916,9532,19974,9355,19950z"/>
	<path class="st0" d="M16830,19949c-36-4-103-20-150-35c-333-103-718-440-871-761c-18-37-47-89-64-115c-42-60-88-170-121-289
		c-14-52-36-128-49-169c-105-333-177-744-222-1280c-24-287-24-1014,0-1286c20-223,42-403,65-528l17-90l102-57
		c209-116,418-263,556-389c38-35,72-59,76-54c39,43,218,289,296,407c159,243,343,588,470,882c26,61,92,200,145,310
		c297,607,484,1138,575,1630c76,411,77,811,5,1110C17542,19722,17217,20002,16830,19949z"/>
	<path class="st0" d="M10489,11058c-343-31-662-287-777-623c-42-124-55-219-49-365c6-160,33-266,102-399c145-280,407-463,718-503
		c369-46,753,166,921,510c188,383,119,819-178,1117C11032,10990,10769,11084,10489,11058z"/>
	<path class="st0" d="M15694,11059c-349-31-663-284-780-626c-45-133-58-223-51-368c14-274,122-500,329-680c221-194,532-268,816-194
		c479,125,782,618,682,1107C16591,10785,16175,11102,15694,11059z"/>
	<path class="st0" d="M12680,8034c-260-69-405-302-322-519c27-71,99-170,185-252c77-74,216-176,294-217l32-16l3-528l3-527l26-55
		c37-80,72-115,147-152c57-28,77-33,137-32c95,1,160,30,224,100c83,91,81,75,81,669v522l28,12c62,28,226,146,301,217
		c90,85,170,197,196,274c12,36,16,74,14,128c-17,351-507,520-812,280l-37-30l-34,30C13039,8032,12832,8075,12680,8034z"/>
</g>
</svg>
