<?xml version="1.0" encoding="utf-8"?>
<!-- Generator: Adobe Illustrator 25.2.0, SVG Export Plug-In . SVG Version: 6.00 Build 0)  -->
<svg version="1.1" id="Layer_1" xmlns="http://www.w3.org/2000/svg" xmlns:xlink="http://www.w3.org/1999/xlink" x="0px" y="0px"
	 viewBox="0 0 333.3 416.7" style="enable-background:new 0 0 333.3 416.7;" xml:space="preserve">
<style type="text/css">
	.st0{fill:#FFFFFF;}
</style>
<g>
	<path class="st0" d="M292.1,161.9c-24.1-9.1-56.7-28.4-73.2-69.1c-16.5,40.7-49.1,60.1-73.2,69.1c24.1,9,56.7,28.4,73.2,69.1
		C235.4,190.3,268,171,292.1,161.9z M138.8,258.1c-13.4-6.2-29-17.1-38.7-36.6C90.3,241,74.7,252,61.3,258.1
		c13.4,6.2,29,17.1,38.7,36.6C109.8,275.3,125.4,264.3,138.8,258.1z M107.6,196.2c9.2,47.9,55.6,54,58.3,54.4
		c3.5,0.3,6.4,3.1,6.9,6.7c0.5,4.2-2.5,8-6.7,8.5c-0.1,0-48.9,5-58.4,54.3c-0.6,3-2.9,5.5-6.1,6.1c-4.2,0.8-8.2-1.9-8.9-6.1
		c-9.2-48-55.6-54-58.3-54.4c-3.5-0.3-6.4-3.1-6.9-6.7c-0.5-4.2,2.5-8,6.7-8.5c0.1,0,48.9-5,58.4-54.3c0.6-3,2.9-5.5,6.1-6.1
		C102.8,189.3,106.8,192,107.6,196.2L107.6,196.2z M136.9,86.1c-16.7-7.1-37.2-20.7-49.1-46.3C75.9,65.3,55.4,78.9,38.7,86.1
		c16.7,7.1,37.2,20.7,49.1,46.3C99.6,106.8,120.1,93.2,136.9,86.1z M95.3,13.2c11.1,57.7,67.1,64.9,70,65.2c3.5,0.3,6.5,3.1,6.9,6.8
		c0.5,4.2-2.6,8-6.8,8.4c-0.2,0-58.7,6-70.1,65.2c-0.6,3-2.9,5.5-6.1,6.1c-4.2,0.8-8.2-1.9-8.9-6.1c-11.1-57.7-67.1-64.9-70-65.2
		c-3.5-0.3-6.5-3.1-6.9-6.8c-0.5-4.2,2.6-8,6.8-8.4c0.2,0,58.7-6,70.1-65.2c0.6-3,2.9-5.5,6.1-6.2C90.5,6.3,94.5,9.1,95.3,13.2
		L95.3,13.2z M226.4,64.3c15.3,79.9,93.1,89.6,96.7,90.1c3.5,0.3,6.5,3.1,6.9,6.7c0.5,4.2-2.5,8-6.7,8.5c-0.2,0-81.1,8.4-96.8,90
		c-0.5,3-2.9,5.5-6.1,6.1c-4.1,0.8-8.1-1.9-8.9-6.1c-15.3-79.9-93.1-89.6-96.7-90.1c-3.5-0.3-6.4-3.1-6.9-6.7
		c-0.5-4.2,2.5-8,6.7-8.5c0.2,0,81.1-8.4,96.8-90c0.6-3,2.9-5.5,6.1-6.2C221.6,57.4,225.6,60.1,226.4,64.3z"/>
</g>
</svg>
